<svg width="18" height="12" viewBox="0 0 18 12" fill="none"
    xmlns="http://www.w3.org/2000/svg">
    <path d="M1 2C1.55228 2 2 1.55228 2 1C2 0.447715 1.55228 0 1 0C0.447715 0 0 0.447715 0 1C0 1.55228 0.447715 2 1 2Z" fill="#C3CAD9"/>
    <path d="M1 7C1.55228 7 2 6.55228 2 6C2 5.44772 1.55228 5 1 5C0.447715 5 0 5.44772 0 6C0 6.55228 0.447715 7 1 7Z" fill="#C3CAD9"/>
    <path d="M1 12C1.55228 12 2 11.5523 2 11C2 10.4477 1.55228 10 1 10C0.447715 10 0 10.4477 0 11C0 11.5523 0.447715 12 1 12Z" fill="#C3CAD9"/>
    <path d="M17.06 5H4.94C4.42085 5 4 5.42085 4 5.94V6.06C4 6.57915 4.42085 7 4.94 7H17.06C17.5791 7 18 6.57915 18 6.06V5.94C18 5.42085 17.5791 5 17.06 5Z" fill="#C3CAD9"/>
    <path d="M17.06 10H4.94C4.42085 10 4 10.4209 4 10.94V11.06C4 11.5791 4.42085 12 4.94 12H17.06C17.5791 12 18 11.5791 18 11.06V10.94C18 10.4209 17.5791 10 17.06 10Z" fill="#C3CAD9"/>
    <path d="M17.06 0H4.94C4.42085 0 4 0.420852 4 0.94V1.06C4 1.57915 4.42085 2 4.94 2H17.06C17.5791 2 18 1.57915 18 1.06V0.94C18 0.420852 17.5791 0 17.06 0Z" fill="#C3CAD9"/>
</svg>
